<?xml version="1.0" encoding="utf-8"?>
<!-- Generator: Adobe Illustrator 16.0.4, SVG Export Plug-In . SVG Version: 6.00 Build 0)  -->
<!DOCTYPE svg PUBLIC "-//W3C//DTD SVG 1.1//EN" "http://www.w3.org/Graphics/SVG/1.1/DTD/svg11.dtd">
<svg version="1.1" id="Layer_1" xmlns="http://www.w3.org/2000/svg" xmlns:xlink="http://www.w3.org/1999/xlink" x="0px" y="0px"
	 width="256px" height="256px" viewBox="0 0 256 256" enable-background="new 0 0 256 256" xml:space="preserve">
<g>
	<g>
		<path fill="#88BE40" d="M234.837,58.424c-4.14-18.631-45.029-3.624-86.949-40.37c0,0-8.799-9.316-21.738-9.316
			c-12.94,0-21.738,9.316-21.738,9.316C62.49,54.801,21.605,39.793,17.464,58.424C2.973,138.642,68.184,247.844,126.15,247.844
			C184.115,247.844,249.328,138.642,234.837,58.424z"/>
		<path fill="#4E672F" d="M126.15,8.739c12.939,0,21.738,9.316,21.738,9.316c41.92,36.746,82.81,21.738,86.949,40.37
			c14.491,80.217-50.722,189.419-108.687,189.419c-57.966,0-123.177-109.202-108.686-189.419
			c4.141-18.631,45.025-3.624,86.948-40.37C104.412,18.055,113.21,8.739,126.15,8.739 M126.15,1.658
			c-14.555,0-24.72,9.377-26.589,11.233c-21.947,19.154-43.713,23.248-59.619,26.24c-6.849,1.289-12.765,2.401-17.571,4.459
			c-6.5,2.783-10.477,7.257-11.819,13.297l-0.031,0.138l-0.025,0.14c-4.54,25.135-1.905,54.108,7.62,83.787
			c8.766,27.312,22.967,53.573,39.99,73.945c21.567,25.812,45.732,40.027,68.044,40.027c22.312,0,46.477-14.215,68.042-40.025
			c17.022-20.374,31.229-46.636,39.992-73.947c9.525-29.679,12.16-58.652,7.619-83.787l-0.025-0.139l-0.029-0.138
			c-1.344-6.04-5.319-10.515-11.819-13.297c-4.807-2.059-10.722-3.171-17.572-4.459c-15.904-2.992-37.671-7.086-59.619-26.24
			C150.87,11.035,140.704,1.658,126.15,1.658L126.15,1.658z"/>
	</g>
	<g>
		<path fill="#4E672F" d="M88.332,173.163c9.558-12.584,24.651-20.723,41.673-20.723c15.347,0,29.129,6.616,38.692,17.142
			c10.392-10.621,16.802-25.152,16.802-41.186c0-32.528-26.367-58.898-58.899-58.898c-32.527,0-58.897,26.371-58.897,58.898
			C67.703,146.313,75.706,162.361,88.332,173.163z M159.527,146.668c-0.889,1.989-2.487,2.39-4.354,1.528
			c-8.17-3.778-17.267-5.895-26.857-5.895c-9.845,0-19.167,2.23-27.506,6.198c-0.893,0.426-2.857,0.614-3.742-1.932
			s0.514-3.982,1.316-4.356c9.1-4.253,19.224-6.671,29.932-6.671c10.516,0,20.634,2,29.444,6.447
			C159.152,142.692,160.42,144.678,159.527,146.668z M164.751,130.998c-0.636,0.889-1.624,1.501-2.802,1.501
			c-0.324,0-0.617-0.099-0.915-0.187c-10.015-4.421-21.071-6.907-32.718-6.907c-11.564,0-22.548,2.447-32.501,6.809
			c-0.359,0.126-0.733,0.235-1.135,0.235c-1.199,0-2.205-0.637-2.836-1.557l-0.662-1.988c0.013-1.034,0.496-1.928,1.214-2.561
			c10.97-4.924,23.115-7.696,35.921-7.696c12.796,0,24.935,2.769,35.904,7.688c0.735,0.628,1.205,1.549,1.225,2.582L164.751,130.998
			z M87.94,106.222c12.481-5.037,26.092-7.853,40.376-7.853c14.149,0,27.64,2.76,40.027,7.707c1.675,0.854,2.852,2.538,2.852,4.544
			c0,2.849-2.313,5.156-5.154,5.156c-0.399,0-0.776-0.09-1.146-0.175c-11.306-4.559-23.642-7.093-36.579-7.093
			c-12.948,0-25.293,2.54-36.604,7.103c-0.366,0.083-0.73,0.165-1.119,0.165c-2.846,0-5.155-2.307-5.155-5.156
			C85.439,108.746,86.447,107.122,87.94,106.222z"/>
		<path fill="#4E672F" d="M130.005,172.718c-9.556,0-18.134,4.214-24.015,10.865c6.415,2.396,13.36,3.709,20.61,3.709
			c9.111,0,17.738-2.067,25.439-5.763C146.288,176.078,138.537,172.718,130.005,172.718z"/>
	</g>
	<g>
		<path fill="#FFFFFF" d="M85.227,170.059c9.557-12.583,24.65-20.725,41.674-20.725c15.346,0,29.127,6.616,38.693,17.145
			c10.392-10.621,16.801-25.155,16.801-41.188c0-32.528-26.368-58.897-58.9-58.897c-32.527,0-58.897,26.369-58.897,58.897
			C64.597,143.208,72.6,159.257,85.227,170.059z M156.422,143.562c-0.89,1.99-2.486,2.391-4.354,1.531
			c-8.169-3.781-17.267-5.897-26.856-5.897c-9.846,0-19.167,2.233-27.506,6.198c-0.893,0.427-2.858,0.615-3.742-1.931
			c-0.884-2.544,0.515-3.981,1.316-4.356c9.099-4.252,19.223-6.669,29.932-6.669c10.515,0,20.634,1.999,29.442,6.445
			C156.047,139.589,157.315,141.574,156.422,143.562z M161.646,127.894c-0.637,0.889-1.624,1.502-2.802,1.502
			c-0.324,0-0.618-0.102-0.915-0.188c-10.014-4.42-21.07-6.907-32.719-6.907c-11.565,0-22.55,2.446-32.502,6.808
			c-0.359,0.127-0.732,0.237-1.134,0.237c-1.198,0-2.205-0.639-2.835-1.557l-0.663-1.989c0.013-1.033,0.495-1.927,1.215-2.562
			c10.969-4.924,23.114-7.695,35.92-7.695c12.796,0,24.936,2.769,35.902,7.688c0.737,0.628,1.205,1.548,1.226,2.581L161.646,127.894
			z M84.835,103.116c12.481-5.036,26.092-7.852,40.376-7.852c14.149,0,27.641,2.76,40.026,7.707
			c1.676,0.855,2.851,2.538,2.851,4.544c0,2.849-2.312,5.156-5.154,5.156c-0.398,0-0.775-0.09-1.146-0.175
			c-11.303-4.56-23.641-7.094-36.576-7.094c-12.948,0-25.294,2.54-36.604,7.104c-0.366,0.082-0.73,0.165-1.119,0.165
			c-2.845,0-5.155-2.307-5.155-5.156C82.333,105.641,83.342,104.017,84.835,103.116z"/>
		<path fill="#FFFFFF" d="M126.901,169.611c-9.557,0-18.136,4.215-24.017,10.866c6.416,2.396,13.36,3.711,20.611,3.711
			c9.109,0,17.736-2.067,25.438-5.763C143.182,172.973,135.433,169.611,126.901,169.611z"/>
	</g>
</g>
<g>
	<g>
		<path fill="#B8D87A" d="M224.271,58.232c0.66-0.679,1.469-1.154,2.466-1c0.484,0.073,1.033,0.228,1.5,0.567
			c0.456,0.348,0.911,0.807,1.248,1.367c0.293,0.583,0.474,1.193,0.539,1.76c0.021,0.573-0.097,1.11-0.285,1.562
			c-0.369,0.926-1.181,1.397-2.1,1.63c-0.931,0.236-1.86-0.061-2.614-0.327c-0.376-0.145-0.682-0.332-0.935-0.538
			c-0.291-0.181-0.501-0.392-0.62-0.671c-0.162-0.25-0.254-0.522-0.258-0.861c-0.017-0.332-0.042-0.667,0.031-1.065
			C223.401,59.879,223.602,58.92,224.271,58.232z"/>
	</g>
	<g>
		<path fill="#B8D87A" d="M213.297,53.815c0.41-1.877,2.32-2.988,4.303-2.474c0.995,0.305,1.788,0.989,2.207,1.784
			c0.433,0.794,0.451,1.745,0.121,2.636c-0.333,0.899-1.026,1.543-1.788,1.962c-0.771,0.41-1.613,0.527-2.443,0.269
			C213.98,57.551,212.892,55.669,213.297,53.815z"/>
	</g>
	<g>
		<path fill="#B8D87A" d="M201.59,51.522c0.361-1.874,2.174-3.107,4.048-2.754c1.875,0.354,3.105,2.163,2.749,4.04
			c-0.357,1.875-2.169,3.109-4.049,2.754C202.459,55.208,201.229,53.399,201.59,51.522z"/>
	</g>
	<g>
		<path fill="#B8D87A" d="M189.946,48.927c0.484-1.837,2.355-2.985,4.163-2.558c1.808,0.43,2.962,2.295,2.566,4.154
			c-0.398,1.877-2.258,3.029-4.168,2.575C190.599,52.647,189.457,50.783,189.946,48.927z"/>
	</g>
	<g>
		<path fill="#B8D87A" d="M178.572,45.341c0.67-1.774,2.643-2.741,4.382-2.153c1.74,0.591,2.717,2.558,2.168,4.373
			c-0.556,1.84-2.512,2.815-4.391,2.177C178.853,49.103,177.894,47.141,178.572,45.341z"/>
	</g>
	<g>
		<path fill="#B8D87A" d="M167.663,40.517c0.873-1.682,2.943-2.417,4.598-1.639c1.653,0.783,2.4,2.848,1.657,4.591
			c-0.757,1.77-2.81,2.516-4.61,1.664C167.507,44.285,166.777,42.226,167.663,40.517z"/>
	</g>
	<g>
		<path fill="#B8D87A" d="M157.404,34.433c1.066-1.566,3.209-2.05,4.76-1.08c1.548,0.974,2.045,3.114,1.099,4.756
			c-0.961,1.667-3.089,2.163-4.774,1.104C156.801,38.156,156.322,36.024,157.404,34.433z"/>
	</g>
	<g>
		<path fill="#B8D87A" d="M147.916,27.199c1.236-1.438,3.419-1.674,4.853-0.529c1.432,1.148,1.679,3.331,0.547,4.852
			c-1.148,1.542-3.319,1.792-4.868,0.549C146.896,30.831,146.663,28.659,147.916,27.199z"/>
	</g>
	<g>
		<path fill="#B8D87A" d="M138.202,20.366c0.42-0.853,1.122-1.495,1.998-1.721c0.871-0.24,1.903-0.119,2.831,0.392
			c0.904,0.549,1.473,1.433,1.672,2.311c0.207,0.884-0.026,1.803-0.582,2.576c-0.559,0.778-1.399,1.216-2.241,1.417
			c-0.851,0.196-1.688,0.066-2.414-0.376c-0.749-0.403-1.233-1.111-1.462-1.95C137.79,22.171,137.777,21.226,138.202,20.366z"/>
	</g>
	<g>
		<path fill="#B8D87A" d="M126.647,17.762c0.023-0.949,0.378-1.833,1.094-2.399c0.703-0.578,1.721-0.894,2.805-0.807
			c1.068,0.178,1.965,0.758,2.495,1.494c0.545,0.733,0.667,1.676,0.449,2.601c-0.221,0.934-0.842,1.65-1.53,2.169
			c-0.7,0.509-1.498,0.739-2.312,0.594c-0.82-0.052-1.526-0.494-2.072-1.164C127.044,19.57,126.624,18.721,126.647,17.762z"/>
	</g>
	<g>
		<path fill="#B8D87A" d="M115.121,20.506c-0.387-0.869-0.435-1.817-0.045-2.64c0.377-0.822,1.133-1.559,2.135-1.932
			c1.034-0.3,2.085-0.194,2.887,0.231c0.811,0.412,1.344,1.2,1.562,2.125c0.22,0.934-0.013,1.852-0.4,2.626
			c-0.402,0.767-1.015,1.345-1.819,1.566c-0.784,0.299-1.624,0.233-2.411-0.132C116.25,21.976,115.511,21.381,115.121,20.506z"/>
	</g>
	<g>
		<path fill="#B8D87A" d="M105.448,27.418c-0.797-0.932-1.007-2.171-0.703-3.248c-0.062,0.059-0.13,0.125-0.198,0.19
			c0.104-0.336,0.263-0.675,0.474-1.001c0.105-0.162,0.224-0.326,0.353-0.475c0.126-0.132,0.264-0.257,0.413-0.375
			c0.833-0.663,1.834-0.957,2.733-0.867c0.901,0.076,1.698,0.597,2.252,1.369c0.56,0.779,0.7,1.714,0.631,2.582
			c-0.084,0.866-0.44,1.643-1.108,2.163c-0.119,0.093-0.245,0.175-0.376,0.247c-0.113,0.071-0.224,0.131-0.346,0.182
			c-0.241,0.101-0.506,0.164-0.789,0.193l-0.198,0.19C107.427,28.759,106.246,28.351,105.448,27.418z"/>
	</g>
	<g>
		<path fill="#B8D87A" d="M95.933,34.625c-1.051-1.577-0.693-3.744,0.791-4.817c1.488-1.07,3.656-0.724,4.819,0.773
			c1.18,1.519,0.839,3.677-0.775,4.839C99.156,36.583,97,36.225,95.933,34.625z"/>
	</g>
	<g>
		<path fill="#B8D87A" d="M85.646,40.677c-0.855-1.69-0.245-3.801,1.352-4.689c1.6-0.886,3.714-0.288,4.695,1.333
			c0.997,1.646,0.405,3.749-1.338,4.715C88.615,43.003,86.517,42.394,85.646,40.677z"/>
	</g>
	<g>
		<path fill="#B8D87A" d="M74.715,45.466c-0.653-1.779,0.202-3.802,1.896-4.497c1.696-0.691,3.724,0.153,4.505,1.879
			c0.793,1.753-0.044,3.771-1.886,4.523C77.391,48.125,75.379,47.271,74.715,45.466z"/>
	</g>
	<g>
		<path fill="#B8D87A" d="M63.32,49.02c-0.471-1.838,0.595-3.757,2.366-4.27c1.773-0.509,3.698,0.547,4.28,2.353
			c0.589,1.83-0.46,3.746-2.36,4.292C65.708,51.943,63.797,50.881,63.32,49.02z"/>
	</g>
	<g>
		<path fill="#B8D87A" d="M51.661,51.593c-0.356-1.87,0.85-3.7,2.686-4.079c1.836-0.377,3.671,0.825,4.088,2.682
			c0.42,1.87-0.777,3.699-2.683,4.091C53.847,54.681,52.02,53.475,51.661,51.593z"/>
	</g>
	<g>
		<path fill="#B8D87A" d="M39.949,53.901c-0.431-1.872,0.767-3.695,2.685-4.083c1.919-0.39,3.745,0.822,4.093,2.706
			c0.345,1.872-0.863,3.697-2.689,4.067C42.212,56.959,40.375,55.751,39.949,53.901z"/>
	</g>
	<g>
		<path fill="#B8D87A" d="M29.053,58.49c-0.586-0.747-0.922-1.622-0.673-2.572c0.217-0.973,0.94-1.875,1.958-2.417
			c0.506-0.244,1.034-0.386,1.539-0.429c0.501-0.014,0.983,0.072,1.413,0.239c0.869,0.327,1.489,1.036,1.82,1.929
			c0.333,0.897,0.216,1.847-0.077,2.641c-0.152,0.396-0.366,0.75-0.632,1.043c-0.243,0.312-0.538,0.56-0.895,0.726
			c-0.663,0.362-1.419,0.359-2.181,0.172C30.552,59.594,29.645,59.244,29.053,58.49z"/>
	</g>
	<g>
		<path fill="#B8D87A" d="M25.149,69.748c-0.945-0.13-1.755-0.61-2.289-1.336c-0.532-0.733-0.779-1.681-0.624-2.637
			c0.319-1.912,2.071-3.122,3.96-2.863c1.895,0.26,3.178,2.11,2.868,3.968c-0.15,0.928-0.658,1.69-1.359,2.197
			C27.004,69.59,26.095,69.878,25.149,69.748z"/>
	</g>
	<g>
		<path fill="#B8D87A" d="M24.252,81.368c-1.92-0.055-3.379-1.684-3.263-3.654c0.113-1.971,1.75-3.419,3.664-3.25
			c1.891,0.167,3.347,1.81,3.241,3.653C27.786,79.959,26.149,81.423,24.252,81.368z"/>
	</g>
	<g>
		<path fill="#B8D87A" d="M24.396,93.297c-1.917,0.107-3.513-1.388-3.57-3.353c-0.06-1.967,1.443-3.553,3.363-3.56
			c1.899-0.007,3.494,1.501,3.55,3.354C27.793,91.59,26.292,93.191,24.396,93.297z"/>
	</g>
	<g>
		<path fill="#B8D87A" d="M25.496,105.176c-1.902,0.251-3.61-1.114-3.821-3.063c-0.213-1.95,1.161-3.65,3.073-3.813
			c1.894-0.161,3.601,1.217,3.804,3.065C28.751,103.214,27.38,104.926,25.496,105.176z"/>
	</g>
	<g>
		<path fill="#B8D87A" d="M27.453,116.944c-1.879,0.382-3.68-0.86-4.027-2.785c-0.35-1.925,0.9-3.719,2.794-4.021
			c1.877-0.299,3.678,0.954,4.012,2.788C30.562,114.761,29.316,116.566,27.453,116.944z"/>
	</g>
	<g>
		<path fill="#B8D87A" d="M30.184,128.559c-1.851,0.5-3.728-0.622-4.2-2.517c-0.474-1.896,0.657-3.767,2.526-4.194
			c1.854-0.423,3.732,0.709,4.185,2.521C33.146,126.18,32.02,128.062,30.184,128.559z"/>
	</g>
	<g>
		<path fill="#B8D87A" d="M33.627,139.983c-1.817,0.61-3.759-0.396-4.345-2.256c-0.587-1.861,0.426-3.798,2.266-4.34
			c1.824-0.538,3.768,0.478,4.332,2.261C36.441,137.431,35.431,139.378,33.627,139.983z"/>
	</g>
	<g>
		<path fill="#B8D87A" d="M37.737,151.188c-1.779,0.714-3.776-0.177-4.469-1.999c-0.694-1.822,0.205-3.815,2.008-4.465
			c1.79-0.645,3.79,0.256,4.456,2.005C40.397,148.478,39.502,150.479,37.737,151.188z"/>
	</g>
	<g>
		<path fill="#B8D87A" d="M42.481,162.144c-1.735,0.813-3.78,0.037-4.575-1.742c-0.797-1.779-0.013-3.82,1.751-4.571
			c1.75-0.746,3.798,0.039,4.563,1.747C44.983,159.285,44.204,161.335,42.481,162.144z"/>
	</g>
	<g>
		<path fill="#B8D87A" d="M47.843,172.812c-1.686,0.912-3.772,0.254-4.667-1.478c-0.897-1.731-0.231-3.814,1.487-4.665
			c1.705-0.844,3.794-0.177,4.655,1.484C50.178,169.816,49.517,171.907,47.843,172.812z"/>
	</g>
	<g>
		<path fill="#B8D87A" d="M53.817,183.152c-1.629,1.011-3.75,0.476-4.746-1.201c-0.998-1.678-0.454-3.796,1.212-4.744
			c1.653-0.94,3.777-0.397,4.734,1.209C55.97,180.023,55.433,182.149,53.817,183.152z"/>
	</g>
	<g>
		<path fill="#B8D87A" d="M60.407,193.103c-1.562,1.112-3.712,0.71-4.812-0.905c-1.102-1.614-0.689-3.763,0.917-4.811
			c1.593-1.038,3.747-0.627,4.799,0.914C62.36,189.844,61.956,192,60.407,193.103z"/>
	</g>
	<g>
		<path fill="#B8D87A" d="M67.64,202.595c-1.482,1.219-3.653,0.963-4.862-0.578c-1.211-1.54-0.944-3.71,0.59-4.861
			c1.521-1.141,3.698-0.875,4.849,0.589C69.366,199.209,69.107,201.388,67.64,202.595z"/>
	</g>
	<g>
		<path fill="#B8D87A" d="M75.555,211.526c-1.381,1.333-3.565,1.244-4.893-0.206c-1.329-1.449-1.228-3.633,0.22-4.894
			c1.433-1.247,3.625-1.147,4.879,0.22C77.012,208.014,76.921,210.207,75.555,211.526z"/>
	</g>
	<g>
		<path fill="#B8D87A" d="M84.208,219.743c-1.251,1.459-3.434,1.565-4.893,0.231c-1.461-1.332-1.553-3.516-0.215-4.895
			c1.322-1.362,3.515-1.457,4.877-0.215C85.337,216.109,85.443,218.303,84.208,219.743z"/>
	</g>
	<g>
		<path fill="#B8D87A" d="M93.667,227.015c-1.075,1.597-3.231,1.941-4.84,0.765c-1.61-1.176-1.938-3.336-0.744-4.846
			c1.176-1.486,3.347-1.818,4.823-0.741C94.38,223.272,94.724,225.442,93.667,227.015z"/>
	</g>
	<g>
		<path fill="#B8D87A" d="M103.996,232.981c-0.826,1.743-2.912,2.385-4.688,1.429c-1.779-0.953-2.398-3.048-1.404-4.7
			c0.975-1.62,3.082-2.247,4.671-1.396C104.16,229.169,104.804,231.273,103.996,232.981z"/>
	</g>
	<g>
		<path fill="#B8D87A" d="M115.186,237.092c-0.464,1.865-2.41,2.916-4.382,2.331c-1.934-0.674-2.903-2.658-2.199-4.446
			c0.696-1.766,2.648-2.725,4.321-2.138C114.616,233.336,115.643,235.251,115.186,237.092z"/>
	</g>
	<g>
		<path fill="#B8D87A" d="M127,238.599c-0.013,0.952-0.381,1.827-1.059,2.42c-0.67,0.6-1.624,0.95-2.654,0.904
			c-2.077-0.217-3.479-1.932-3.18-3.834c0.295-1.87,1.971-3.252,3.694-3.064c0.877,0.035,1.651,0.453,2.231,1.104
			C126.606,236.786,127.013,237.642,127,238.599z"/>
	</g>
	<g>
		<path fill="#B8D87A" d="M138.797,236.998c0.498,1.858-0.702,3.716-2.724,4.159c-2.053,0.335-3.854-0.954-4.066-2.866
			c-0.209-1.883,1.048-3.653,2.768-3.928C136.482,233.982,138.305,235.168,138.797,236.998z"/>
	</g>
	<g>
		<path fill="#B8D87A" d="M149.954,232.822c0.851,1.734,0.041,3.763-1.835,4.553c-1.876,0.794-3.891-0.042-4.536-1.863
			c-0.63-1.778,0.209-3.814,1.853-4.513C147.08,230.309,149.122,231.129,149.954,232.822z"/>
	</g>
	<g>
		<path fill="#B8D87A" d="M160.252,226.812c1.093,1.587,0.613,3.718-1.087,4.781c-1.699,1.067-3.824,0.567-4.774-1.11
			c-0.931-1.646-0.431-3.787,1.105-4.754C157.035,224.768,159.179,225.253,160.252,226.812z"/>
	</g>
	<g>
		<path fill="#B8D87A" d="M169.682,219.51c1.264,1.449,1.049,3.625-0.491,4.876c-1.539,1.255-3.711,1.023-4.873-0.51
			c-1.144-1.512-0.913-3.696,0.509-4.856C166.25,217.862,168.436,218.081,169.682,219.51z"/>
	</g>
	<g>
		<path fill="#B8D87A" d="M178.311,211.271c1.391,1.324,1.39,3.511-0.01,4.899c-1.398,1.391-3.583,1.376-4.897-0.025
			c-1.299-1.385-1.286-3.579,0.024-4.884C174.74,209.959,176.935,209.962,178.311,211.271z"/>
	</g>
	<g>
		<path fill="#B8D87A" d="M186.202,202.324c1.489,1.211,1.667,3.39,0.394,4.882c-1.273,1.494-3.453,1.661-4.883,0.381
			c-1.415-1.269-1.584-3.456-0.379-4.871C182.54,201.304,184.727,201.126,186.202,202.324z"/>
	</g>
	<g>
		<path fill="#B8D87A" d="M193.414,192.818c1.568,1.104,1.902,3.266,0.742,4.841c-1.159,1.576-3.321,1.899-4.842,0.729
			c-1.507-1.159-1.833-3.328-0.729-4.831C189.691,192.058,191.859,191.725,193.414,192.818z"/>
	</g>
	<g>
		<path fill="#B8D87A" d="M199.983,182.86c1.634,1.003,2.106,3.139,1.053,4.782c-1.054,1.645-3.19,2.107-4.784,1.041
			c-1.581-1.057-2.047-3.2-1.04-4.773C196.221,182.338,198.362,181.866,199.983,182.86z"/>
	</g>
	<g>
		<path fill="#B8D87A" d="M205.936,172.518c1.69,0.904,2.29,3.008,1.338,4.709c-0.951,1.703-3.057,2.294-4.713,1.328
			c-1.643-0.959-2.236-3.07-1.324-4.703C202.148,172.22,204.259,171.62,205.936,172.518z"/>
	</g>
	<g>
		<path fill="#B8D87A" d="M211.277,161.846c1.739,0.806,2.459,2.871,1.607,4.624c-0.852,1.754-2.919,2.466-4.628,1.598
			c-1.696-0.862-2.411-2.936-1.595-4.619C207.48,161.766,209.552,161.045,211.277,161.846z"/>
	</g>
	<g>
		<path fill="#B8D87A" d="M216.004,150.887c1.781,0.706,2.617,2.728,1.866,4.525c-0.75,1.8-2.773,2.627-4.529,1.857
			c-1.742-0.764-2.574-2.793-1.854-4.521C212.208,151.023,214.235,150.186,216.004,150.887z"/>
	</g>
	<g>
		<path fill="#B8D87A" d="M220.096,139.676c1.819,0.602,2.771,2.572,2.123,4.411c-0.646,1.84-2.619,2.782-4.416,2.114
			c-1.782-0.663-2.729-2.642-2.109-4.407C216.313,140.03,218.289,139.078,220.096,139.676z"/>
	</g>
	<g>
		<path fill="#B8D87A" d="M223.521,128.243c1.854,0.491,2.919,2.401,2.382,4.277c-0.535,1.877-2.45,2.935-4.282,2.372
			c-1.819-0.558-2.881-2.477-2.368-4.273C219.767,128.823,221.683,127.755,223.521,128.243z"/>
	</g>
	<g>
		<path fill="#B8D87A" d="M226.232,116.62c1.882,0.372,3.065,2.211,2.646,4.12c-0.418,1.91-2.262,3.085-4.126,2.636
			c-1.849-0.445-3.029-2.294-2.631-4.117C222.521,117.437,224.367,116.251,226.232,116.62z"/>
	</g>
	<g>
		<path fill="#B8D87A" d="M228.167,104.842c1.903,0.241,3.208,1.996,2.918,3.932c-0.288,1.938-2.049,3.234-3.939,2.909
			c-1.873-0.323-3.176-2.088-2.901-3.93C224.521,105.912,226.281,104.604,228.167,104.842z"/>
	</g>
	<g>
		<path fill="#B8D87A" d="M229.242,92.956c1.917,0.095,3.349,1.748,3.202,3.705c-0.145,1.958-1.805,3.381-3.715,3.192
			c-1.891-0.188-3.319-1.852-3.184-3.704C225.686,94.298,227.345,92.862,229.242,92.956z"/>
	</g>
	<g>
		<path fill="#B8D87A" d="M229.356,81.022c1.92-0.069,3.482,1.459,3.498,3.428c0.017,1.97-1.521,3.524-3.44,3.488
			c-1.898-0.037-3.46-1.578-3.477-3.429C225.924,82.66,227.459,81.091,229.356,81.022z"/>
	</g>
	<g>
		<path fill="#B8D87A" d="M228.391,69.128c1.905-0.254,3.603,1.121,3.802,3.089c0.201,1.968-1.186,3.657-3.103,3.792
			c-1.894,0.133-3.591-1.258-3.779-3.091C225.126,71.085,226.51,69.38,228.391,69.128z"/>
	</g>
</g>
</svg>
