<?xml version="1.0" encoding="utf-8"?>
<!-- Generator: Adobe Illustrator 16.0.4, SVG Export Plug-In . SVG Version: 6.00 Build 0)  -->
<!DOCTYPE svg PUBLIC "-//W3C//DTD SVG 1.1//EN" "http://www.w3.org/Graphics/SVG/1.1/DTD/svg11.dtd">
<svg version="1.1" id="Layer_1" xmlns="http://www.w3.org/2000/svg" xmlns:xlink="http://www.w3.org/1999/xlink" x="0px" y="0px"
	 width="256px" height="256px" viewBox="0 0 256 256" enable-background="new 0 0 256 256" xml:space="preserve">
<g>
	<path d="M154.653,138.225c-8.809-4.446-18.928-6.445-29.442-6.445c-10.708,0-20.833,2.417-29.932,6.669
		c-0.802,0.375-2.2,1.812-1.316,4.356c0.884,2.546,2.849,2.357,3.742,1.931c8.339-3.965,17.66-6.198,27.506-6.198
		c9.59,0,18.688,2.116,26.856,5.897c1.868,0.859,3.465,0.459,4.354-1.531C157.315,140.916,156.047,138.931,154.653,138.225z"/>
	<path d="M125.211,114.884c-12.807,0-24.951,2.771-35.92,7.695c-0.72,0.634-1.202,1.528-1.215,2.562l0.663,1.989
		c0.63,0.918,1.637,1.557,2.835,1.557c0.402,0,0.775-0.11,1.134-0.237c9.953-4.362,20.937-6.808,32.502-6.808
		c11.648,0,22.705,2.487,32.719,6.907c0.297,0.087,0.591,0.188,0.915,0.188c1.178,0,2.165-0.613,2.802-1.502l0.692-2.083
		c-0.021-1.032-0.488-1.953-1.226-2.581C150.146,117.652,138.007,114.884,125.211,114.884z"/>
	<path d="M241.803,56.507l-0.025-0.139l-0.029-0.138c-1.344-6.04-5.319-10.515-11.819-13.297
		c-4.807-2.059-10.722-3.171-17.572-4.459c-15.904-2.992-37.671-7.086-59.619-26.24C150.87,10.377,140.704,1,126.15,1
		c-14.555,0-24.72,9.377-26.589,11.233c-21.947,19.154-43.713,23.248-59.619,26.24c-6.849,1.289-12.765,2.401-17.571,4.459
		c-6.5,2.783-10.477,7.257-11.819,13.297l-0.031,0.138l-0.025,0.14c-4.54,25.135-1.905,54.108,7.62,83.787
		c8.766,27.312,22.967,53.573,39.99,73.945c21.567,25.812,45.732,40.027,68.044,40.027c22.312,0,46.477-14.215,68.042-40.025
		c17.022-20.374,31.229-46.636,39.992-73.947C243.709,110.615,246.344,81.642,241.803,56.507z M123.495,183.53
		c-7.251,0-14.195-1.315-20.611-3.711c5.881-6.651,14.46-10.866,24.017-10.866c8.532,0,16.281,3.361,22.032,8.814
		C141.23,181.463,132.604,183.53,123.495,183.53z M165.594,165.82c-9.565-10.528-23.347-17.145-38.693-17.145
		c-17.023,0-32.117,8.142-41.674,20.725c-12.627-10.802-20.63-26.851-20.63-44.768c0-32.528,26.37-58.897,58.897-58.897
		c32.532,0,58.9,26.369,58.9,58.897C182.395,140.665,175.985,155.199,165.594,165.82z"/>
	<path d="M84.835,102.458c-1.493,0.901-2.502,2.525-2.502,4.399c0,2.849,2.31,5.156,5.155,5.156c0.389,0,0.753-0.083,1.119-0.165
		c11.31-4.564,23.656-7.104,36.604-7.104c12.936,0,25.273,2.534,36.576,7.094c0.371,0.085,0.748,0.175,1.146,0.175
		c2.842,0,5.154-2.307,5.154-5.156c0-2.007-1.175-3.689-2.851-4.544c-12.386-4.946-25.877-7.707-40.026-7.707
		C110.927,94.606,97.316,97.422,84.835,102.458z"/>
</g>
</svg>
